# xmcd CD database file
#
# Track frame offsets:
#	150
#	18527
#	34744
#	53829
#	68200
#	87511
#	106858
#	118982
#	132306
#	153918
#	175207
#	190422
#	209073
#
# Disc length: 2984 seconds
#
# Revision: 0
# Processed by: cddbd v1.5.1PL0 Copyright (c) Steve Scherf et al.
# Submitted via: CDex 1.51
#
DISCID=bd0ba60d
DTITLE=Gwyneth Herbert - Bittersweet and Blue
DYEAR=2004
DGENRE=Jazz
TTITLE0=Fever
TTITLE1=The Heart of Saturday Night
TTITLE2=The Very Tought of You
TTITLE3=It's Alright With Me
TTITLE4=Bittsersweet and Blue
TTITLE5=Glory Box
TTITLE6=Every Time We Say Goodbuy
TTITLE7=Almost Like Being in Love
TTITLE8=At Seventeen
TTITLE9=Into Temptation
TTITLE10=A Little Less
TTITLE11=Fallen
TTITLE12=Only Love Can Break Your Heart
EXTD=YEAR: 2004
EXTT0=
EXTT1=
EXTT2=
EXTT3=
EXTT4=
EXTT5=
EXTT6=
EXTT7=
EXTT8=
EXTT9=
EXTT10=
EXTT11=
EXTT12=
PLAYORDER=
